<svg xmlns="http://www.w3.org/2000/svg" width="24" height="24" id="arrow"><g fill-rule="evenodd" transform="translate(0 -1028.362)"><circle cx="12" cy="1040.362" r="12" fill="#50b748"></circle><path style="line-height:normal;text-indent:0;text-align:start;text-decoration-line:none;text-transform:none;block-progression:tb" fill="#10a711" d="M16.18 23.24a12 12 0 0 0 .168-.056 12 12 0 0 0 1.095-.489 12 12 0 0 0 1.041-.597 12 12 0 0 0 .975-.698 12 12 0 0 0 .902-.793 12 12 0 0 0 .817-.877 12 12 0 0 0 .726-.955 12 12 0 0 0 .627-1.021 12 12 0 0 0 .307-.635L12 6.281 7.53 11.72l3.128 3.129v2.87l5.522 5.522z" color="#000" font-family="sans-serif" font-weight="400" transform="translate(0 1028.362)"></path><path style="line-height:normal;text-indent:0;text-align:start;text-decoration-line:none;text-transform:none;block-progression:tb" fill="#fff" d="m8.354 2.568 4.47 5.44H9.695v6H7.012v-6h-3.13z" color="#000" font-family="sans-serif" font-weight="400" overflow="visible" transform="translate(3.646 1032.074)"></path></g></svg>